<?xml version="1.0" ?><!DOCTYPE svg  PUBLIC '-//W3C//DTD SVG 1.1//EN'  'http://www.w3.org/Graphics/SVG/1.1/DTD/svg11.dtd'><svg height="512px" style="enable-background:new 0 0 512 512;" version="1.1" viewBox="0 0 512 512" width="512px" xml:space="preserve" xmlns="http://www.w3.org/2000/svg" xmlns:xlink="http://www.w3.org/1999/xlink"><g id="_x36_11_x2C__Code_x2C__coding_x2C__compile_x2C__files_x2C__list"><g><path d="M412.527,26.002h-252.97v27.938v0.125v315.316h219.691h33.279V26.002z     M375.289,377.111H155.723c-2.137,0-3.866-1.727-3.866-3.864V57.897h-29.54v26.649v0.093v316.669H347.32h27.969V377.111z     M184.98,64.529c-2.137,0-3.866-1.729-3.866-3.866c0-2.106,1.729-3.864,3.866-3.864h102.414c2.104,0,3.833,1.758,3.833,3.864    c0,2.138-1.729,3.866-3.833,3.866H184.98z M184.98,85.144c-2.137,0-3.866-1.729-3.866-3.866c0-2.105,1.729-3.834,3.866-3.834    h152.284c2.138,0,3.866,1.729,3.866,3.834c0,2.138-1.729,3.866-3.866,3.866H184.98z M184.98,105.758    c-2.137,0-3.866-1.729-3.866-3.865c0-2.105,1.729-3.865,3.866-3.865h199.485c2.138,0,3.866,1.76,3.866,3.865    c0,2.137-1.729,3.865-3.866,3.865H184.98z M184.98,146.328c-2.137,0-3.866-1.729-3.866-3.865c0-2.138,1.729-3.866,3.866-3.866    h102.414c2.104,0,3.833,1.729,3.833,3.866c0,2.137-1.729,3.865-3.833,3.865H184.98z M184.98,166.943    c-2.137,0-3.866-1.729-3.866-3.866s1.729-3.866,3.866-3.866h152.284c2.138,0,3.866,1.729,3.866,3.866s-1.729,3.866-3.866,3.866    H184.98z M184.98,187.558c-2.137,0-3.866-1.729-3.866-3.866c0-2.137,1.729-3.865,3.866-3.865h199.485    c2.138,0,3.866,1.729,3.866,3.865c0,2.138-1.729,3.866-3.866,3.866H184.98z M184.98,228.126c-2.137,0-3.866-1.728-3.866-3.864    s1.729-3.865,3.866-3.865h102.414c2.104,0,3.833,1.729,3.833,3.865s-1.729,3.864-3.833,3.864H184.98z M184.98,248.74    c-2.137,0-3.866-1.729-3.866-3.863c0-2.138,1.729-3.866,3.866-3.866h152.284c2.138,0,3.866,1.729,3.866,3.866    c0,2.135-1.729,3.863-3.866,3.863H184.98z M184.98,269.355c-2.137,0-3.866-1.729-3.866-3.864c0-2.138,1.729-3.865,3.866-3.865    h199.485c2.138,0,3.866,1.728,3.866,3.865c0,2.136-1.729,3.864-3.866,3.864H184.98z M184.98,309.926    c-2.137,0-3.866-1.729-3.866-3.866c0-2.136,1.729-3.864,3.866-3.864h102.414c2.104,0,3.833,1.729,3.833,3.864    c0,2.138-1.729,3.866-3.833,3.866H184.98z M184.98,330.54c-2.137,0-3.866-1.729-3.866-3.866c0-2.135,1.729-3.863,3.866-3.863    h152.284c2.138,0,3.866,1.729,3.866,3.863c0,2.138-1.729,3.866-3.866,3.866H184.98z M184.98,351.154    c-2.137,0-3.866-1.729-3.866-3.865c0-2.136,1.729-3.863,3.866-3.863h199.485c2.138,0,3.866,1.728,3.866,3.863    c0,2.137-1.729,3.865-3.866,3.865H184.98z M101.014,59.972c2.135,0,3.864,1.729,3.864,3.866c0,2.105-1.729,3.834-3.864,3.834    h-33.72v82.615c0,2.105-1.728,3.834-3.866,3.834c-2.105,0-3.866-1.729-3.866-3.834V63.838c0-2.138,1.76-3.866,3.866-3.866H101.014    z M65.408,463.186c-2.137,0-3.864-1.729-3.864-3.866s1.727-3.865,3.864-3.865h307.87c2.137,0,3.865,1.728,3.865,3.865    s-1.729,3.866-3.865,3.866H65.408z M245.692,485.999c-2.137,0-3.865-1.729-3.865-3.864c0-2.138,1.728-3.866,3.865-3.866h213.061    c2.105,0,3.834,1.729,3.834,3.866c0,2.136-1.729,3.864-3.834,3.864H245.692z M53.279,485.308c-2.137,0-3.866-1.729-3.866-3.864    c0-2.138,1.729-3.866,3.866-3.866h100.967c2.137,0,3.866,1.729,3.866,3.866c0,2.136-1.729,3.864-3.866,3.864H53.279z     M343.361,409.039H118.454c-2.106,0-3.866-1.759-3.866-3.864V88.506H90.422v343.38h252.939V409.039z" style="fill-rule:evenodd;clip-rule:evenodd;"/></g></g><g id="Layer_1"/></svg>